<?xml version="1.0" encoding="UTF-8"?>
<!DOCTYPE svg PUBLIC "-//W3C//DTD SVG 1.1//EN" "http://www.w3.org/Graphics/SVG/1.1/DTD/svg11.dtd">
<!-- Creator: CorelDRAW -->
<svg xmlns="http://www.w3.org/2000/svg" xml:space="preserve" width="1.70666in" height="1.70666in" version="1.1" style="shape-rendering:geometricPrecision; text-rendering:geometricPrecision; image-rendering:optimizeQuality; fill-rule:evenodd; clip-rule:evenodd"
viewBox="0 0 1707 1707"
 xmlns:xlink="http://www.w3.org/1999/xlink">
 <defs>
  <style type="text/css">
   <![CDATA[
    .fil0 {fill:white}
   ]]>
  </style>
 </defs>
 <g id="Layer_x0020_1">
  <metadata id="CorelCorpID_0Corel-Layer"/>
  <g id="_643171968">
   <g>
    <g>
     <path class="fil0" d="M210 1465c-39,0 -79,-11 -113,-32 -141,-83 -98,-327 -60,-466 72,-260 234,-551 353,-551l925 0c128,0 282,276 352,531 68,246 48,425 -58,488 -105,62 -242,27 -305,-78l-112 -191 -677 0 -112 191c-31,51 -79,87 -136,101 -19,4 -37,7 -57,7zm291 -348l705 0c8,0 16,4 21,13l120 201c24,40 61,68 107,79 46,11 91,4 132,-20 83,-50 97,-210 36,-432 -70,-255 -218,-495 -305,-495l-925 0c-72,0 -232,242 -307,517 -56,209 -43,363 38,412 82,48 188,22 238,-61l120 -203c4,-7 12,-11 20,-11z"/>
    </g>
    <g>
     <path class="fil0" d="M492 1027c-50,0 -92,-42 -92,-91l0 -55 -54 0c-50,0 -91,-41 -91,-91 0,-50 41,-92 91,-92l54 0 0 -54c0,-50 42,-91 92,-91 50,0 91,41 91,91l0 54 54 0c50,0 92,42 92,92 0,50 -42,91 -92,91l-54 0 0 55c0,49 -41,91 -91,91zm-146 -280c-23,0 -43,19 -43,43 0,22 21,43 43,43l78 0c14,0 25,11 25,25l0 79c0,22 19,43 43,43 23,0 43,-19 43,-43l0 -79c0,-14 11,-25 25,-25l77 0c24,0 43,-19 43,-43 0,-24 -19,-43 -43,-43l-77 0c-14,0 -25,-11 -25,-25l0 -78c0,-23 -20,-43 -43,-43 -23,0 -43,21 -43,43l0 78c0,14 -11,25 -25,25l-78 0z"/>
    </g>
    <g>
     <g>
      <path class="fil0" d="M1261 739c-41,0 -75,-34 -75,-75 0,-42 34,-75 75,-75 42,0 75,33 75,75 0,41 -33,75 -75,75zm0 -102c-14,0 -26,13 -26,27 0,14 12,26 26,26 14,0 27,-12 27,-26 1,-14 -12,-27 -27,-27z"/>
     </g>
     <g>
      <path class="fil0" d="M1261 991c-41,0 -75,-33 -75,-75 0,-41 34,-75 75,-75 42,0 75,34 75,75 0,42 -33,75 -75,75zm0 -101c-14,0 -26,12 -26,26 0,14 12,27 26,27 14,0 27,-13 27,-27 0,-14 -12,-26 -27,-26z"/>
     </g>
     <g>
      <path class="fil0" d="M1389 865c-42,0 -75,-33 -75,-74 0,-41 33,-74 75,-74 40,0 73,33 73,74 0,41 -33,74 -73,74zm0 -101c-14,0 -27,12 -27,26 0,14 11,25 27,25 14,0 25,-11 25,-25 0,-14 -11,-26 -25,-26z"/>
     </g>
     <g>
      <path class="fil0" d="M1135 865c-42,0 -73,-32 -73,-74 0,-41 33,-74 73,-74 42,0 75,33 75,74 0,41 -33,74 -75,74zm0 -101c-14,0 -25,11 -25,26 0,15 11,25 25,25 15,0 26,-11 26,-25 0,-14 -12,-26 -26,-26z"/>
     </g>
    </g>
    <g>
     <g>
      <path class="fil0" d="M758 1077l-75 0c-14,0 -25,-11 -25,-25 0,-14 11,-25 25,-25l75 0c14,0 25,11 25,25 0,14 -11,25 -25,25z"/>
     </g>
     <g>
      <path class="fil0" d="M1025 1077l-76 0c-14,0 -25,-11 -25,-25 0,-14 11,-25 25,-25l76 0c14,0 25,11 25,25 0,14 -11,25 -25,25z"/>
     </g>
    </g>
    <g>
     <path class="fil0" d="M1027 464c-14,0 -25,-11 -25,-25l0 -62 -295 0 0 62c0,14 -12,25 -25,25 -14,0 -25,-11 -25,-25l0 -87c0,-14 11,-25 25,-25l343 0c14,0 25,11 25,25l0 87c0,14 -11,25 -23,25z"/>
    </g>
    <g>
     <path class="fil0" d="M942 377c-14,0 -25,-11 -25,-25l0 -61 -127 0 0 61c0,14 -11,25 -25,25 -14,0 -25,-11 -25,-25l0 -86c0,-14 11,-25 25,-25l176 0c14,0 25,11 25,25l0 86c1,14 -10,25 -24,25z"/>
    </g>
   </g>
  </g>
 </g>
</svg>
